<svg width="168" height="32" viewBox="0 0 168 32" fill="none" xmlns="http://www.w3.org/2000/svg">
<path d="M27 3H5C4.46973 3.00053 3.96133 3.21141 3.58637 3.58637C3.21141 3.96133 3.00053 4.46973 3 5V27C3.00053 27.5303 3.21141 28.0387 3.58637 28.4136C3.96133 28.7886 4.46973 28.9995 5 29H27C27.5303 28.9995 28.0387 28.7886 28.4136 28.4136C28.7886 28.0387 28.9995 27.5303 29 27V5C28.9995 4.46973 28.7886 3.96133 28.4136 3.58637C28.0387 3.21141 27.5303 3.00053 27 3V3ZM19 9H13V5H19V9ZM19 11V15H13V11H19ZM11 11V15H5V11H11ZM11 17V21H5V17H11ZM13 17H19V21H13V17ZM21 15V11H27V15H21ZM5 23H11V27H5V23ZM21 27V23H27V27H21Z" fill="url(#paint0_linear_535_53)"/>
<path d="M35.517 11.5455H40.0682L44.875 23.2727H45.0795L49.8864 11.5455H54.4375V29H50.858V17.6392H50.7131L46.196 28.9148H43.7585L39.2415 17.5966H39.0966V29H35.517V11.5455ZM63.3757 29.2557C62.0291 29.2557 60.87 28.983 59.8984 28.4375C58.9325 27.8864 58.1882 27.108 57.6655 26.1023C57.1428 25.0909 56.8814 23.8949 56.8814 22.5142C56.8814 21.1676 57.1428 19.9858 57.6655 18.9688C58.1882 17.9517 58.924 17.1591 59.8729 16.5909C60.8274 16.0227 61.9467 15.7386 63.2308 15.7386C64.0945 15.7386 64.8984 15.8778 65.6428 16.1562C66.3928 16.429 67.0462 16.8409 67.603 17.392C68.1655 17.9432 68.603 18.6364 68.9155 19.4716C69.228 20.3011 69.3842 21.2727 69.3842 22.3864V23.3835H58.3303V21.1335H65.9666C65.9666 20.6108 65.853 20.1477 65.6257 19.7443C65.3984 19.3409 65.0831 19.0256 64.6797 18.7983C64.282 18.5653 63.8189 18.4489 63.2905 18.4489C62.7393 18.4489 62.2507 18.5767 61.8246 18.8324C61.4041 19.0824 61.0746 19.4205 60.8359 19.8466C60.5973 20.267 60.4751 20.7358 60.4695 21.2528V23.392C60.4695 24.0398 60.5888 24.5994 60.8274 25.071C61.0717 25.5426 61.4155 25.9062 61.8587 26.1619C62.3018 26.4176 62.8274 26.5455 63.4354 26.5455C63.8388 26.5455 64.2081 26.4886 64.5433 26.375C64.8786 26.2614 65.1655 26.0909 65.4041 25.8636C65.6428 25.6364 65.8246 25.358 65.9496 25.0284L69.3075 25.25C69.1371 26.0568 68.7876 26.7614 68.2592 27.3636C67.7365 27.9602 67.0604 28.4261 66.2308 28.7614C65.407 29.0909 64.4553 29.2557 63.3757 29.2557ZM75.3842 21.4318V29H71.7536V15.9091H75.2138V18.2188H75.3672C75.657 17.4574 76.1428 16.8551 76.8246 16.4119C77.5064 15.9631 78.3331 15.7386 79.3047 15.7386C80.2138 15.7386 81.0064 15.9375 81.6825 16.3352C82.3587 16.733 82.8842 17.3011 83.2592 18.0398C83.6342 18.7727 83.8217 19.6477 83.8217 20.6648V29H80.1911V21.3125C80.1967 20.5114 79.9922 19.8864 79.5774 19.4375C79.1626 18.983 78.5916 18.7557 77.8643 18.7557C77.3757 18.7557 76.9439 18.8608 76.5689 19.071C76.1996 19.2812 75.9098 19.5881 75.6996 19.9915C75.495 20.3892 75.3899 20.8693 75.3842 21.4318ZM92.6491 29.2557C91.3026 29.2557 90.1435 28.983 89.1719 28.4375C88.206 27.8864 87.4616 27.108 86.9389 26.1023C86.4162 25.0909 86.1548 23.8949 86.1548 22.5142C86.1548 21.1676 86.4162 19.9858 86.9389 18.9688C87.4616 17.9517 88.1974 17.1591 89.1463 16.5909C90.1009 16.0227 91.2202 15.7386 92.5043 15.7386C93.3679 15.7386 94.1719 15.8778 94.9162 16.1562C95.6662 16.429 96.3196 16.8409 96.8764 17.392C97.4389 17.9432 97.8764 18.6364 98.1889 19.4716C98.5014 20.3011 98.6577 21.2727 98.6577 22.3864V23.3835H87.6037V21.1335H95.2401C95.2401 20.6108 95.1264 20.1477 94.8991 19.7443C94.6719 19.3409 94.3565 19.0256 93.9531 18.7983C93.5554 18.5653 93.0923 18.4489 92.5639 18.4489C92.0128 18.4489 91.5241 18.5767 91.098 18.8324C90.6776 19.0824 90.348 19.4205 90.1094 19.8466C89.8707 20.267 89.7486 20.7358 89.7429 21.2528V23.392C89.7429 24.0398 89.8622 24.5994 90.1009 25.071C90.3452 25.5426 90.6889 25.9062 91.1321 26.1619C91.5753 26.4176 92.1009 26.5455 92.7088 26.5455C93.1122 26.5455 93.4815 26.4886 93.8168 26.375C94.152 26.2614 94.4389 26.0909 94.6776 25.8636C94.9162 25.6364 95.098 25.358 95.223 25.0284L98.581 25.25C98.4105 26.0568 98.0611 26.7614 97.5327 27.3636C97.0099 27.9602 96.3338 28.4261 95.5043 28.7614C94.6804 29.0909 93.7287 29.2557 92.6491 29.2557ZM107.99 15.9091V18.6364H100.107V15.9091H107.99ZM101.896 12.7727H105.527V24.9773C105.527 25.3125 105.578 25.5739 105.68 25.7614C105.783 25.9432 105.925 26.071 106.107 26.1449C106.294 26.2187 106.51 26.2557 106.754 26.2557C106.925 26.2557 107.095 26.2415 107.266 26.2131C107.436 26.179 107.567 26.1534 107.658 26.1364L108.229 28.8381C108.047 28.8949 107.791 28.9602 107.462 29.0341C107.132 29.1136 106.732 29.1619 106.26 29.179C105.385 29.2131 104.618 29.0966 103.959 28.8295C103.305 28.5625 102.797 28.1477 102.433 27.5852C102.07 27.0227 101.891 26.3125 101.896 25.4545V12.7727ZM110.355 29V15.9091H113.875V18.1932H114.011C114.25 17.3807 114.651 16.767 115.213 16.3523C115.776 15.9318 116.423 15.7216 117.156 15.7216C117.338 15.7216 117.534 15.733 117.744 15.7557C117.955 15.7784 118.139 15.8097 118.298 15.8494V19.071C118.128 19.0199 117.892 18.9744 117.591 18.9347C117.29 18.8949 117.014 18.875 116.764 18.875C116.23 18.875 115.753 18.9915 115.332 19.2244C114.918 19.4517 114.588 19.7699 114.344 20.179C114.105 20.5881 113.986 21.0597 113.986 21.5938V29H110.355ZM125.532 29.2557C124.185 29.2557 123.026 28.983 122.055 28.4375C121.089 27.8864 120.344 27.108 119.822 26.1023C119.299 25.0909 119.038 23.8949 119.038 22.5142C119.038 21.1676 119.299 19.9858 119.822 18.9688C120.344 17.9517 121.08 17.1591 122.029 16.5909C122.984 16.0227 124.103 15.7386 125.387 15.7386C126.251 15.7386 127.055 15.8778 127.799 16.1562C128.549 16.429 129.202 16.8409 129.759 17.392C130.322 17.9432 130.759 18.6364 131.072 19.4716C131.384 20.3011 131.54 21.2727 131.54 22.3864V23.3835H120.487V21.1335H128.123C128.123 20.6108 128.009 20.1477 127.782 19.7443C127.555 19.3409 127.239 19.0256 126.836 18.7983C126.438 18.5653 125.975 18.4489 125.447 18.4489C124.896 18.4489 124.407 18.5767 123.981 18.8324C123.56 19.0824 123.231 19.4205 122.992 19.8466C122.754 20.267 122.631 20.7358 122.626 21.2528V23.392C122.626 24.0398 122.745 24.5994 122.984 25.071C123.228 25.5426 123.572 25.9062 124.015 26.1619C124.458 26.4176 124.984 26.5455 125.592 26.5455C125.995 26.5455 126.364 26.4886 126.7 26.375C127.035 26.2614 127.322 26.0909 127.56 25.8636C127.799 25.6364 127.981 25.358 128.106 25.0284L131.464 25.25C131.293 26.0568 130.944 26.7614 130.415 27.3636C129.893 27.9602 129.217 28.4261 128.387 28.7614C127.563 29.0909 126.612 29.2557 125.532 29.2557ZM137.54 21.4318V29H133.91V15.9091H137.37V18.2188H137.523C137.813 17.4574 138.299 16.8551 138.981 16.4119C139.663 15.9631 140.489 15.7386 141.461 15.7386C142.37 15.7386 143.163 15.9375 143.839 16.3352C144.515 16.733 145.04 17.3011 145.415 18.0398C145.79 18.7727 145.978 19.6477 145.978 20.6648V29H142.347V21.3125C142.353 20.5114 142.148 19.8864 141.734 19.4375C141.319 18.983 140.748 18.7557 140.021 18.7557C139.532 18.7557 139.1 18.8608 138.725 19.071C138.356 19.2812 138.066 19.5881 137.856 19.9915C137.651 20.3892 137.546 20.8693 137.54 21.4318ZM153.663 29.2131C152.669 29.2131 151.768 28.9574 150.962 28.446C150.161 27.929 149.524 27.1705 149.053 26.1705C148.587 25.1648 148.354 23.9318 148.354 22.4716C148.354 20.9716 148.595 19.7244 149.078 18.7301C149.561 17.7301 150.203 16.983 151.004 16.4886C151.811 15.9886 152.695 15.7386 153.655 15.7386C154.388 15.7386 154.999 15.8636 155.487 16.1136C155.982 16.358 156.379 16.6648 156.68 17.0341C156.987 17.3977 157.22 17.7557 157.379 18.108H157.49V11.5455H161.112V29H157.533V26.9034H157.379C157.209 27.267 156.967 27.6278 156.655 27.9858C156.348 28.3381 155.947 28.6307 155.453 28.8636C154.964 29.0966 154.368 29.2131 153.663 29.2131ZM154.814 26.3239C155.399 26.3239 155.893 26.1648 156.297 25.8466C156.706 25.5227 157.018 25.071 157.234 24.4915C157.456 23.9119 157.567 23.233 157.567 22.4545C157.567 21.6761 157.459 21 157.243 20.4261C157.027 19.8523 156.714 19.4091 156.305 19.0966C155.896 18.7841 155.399 18.6278 154.814 18.6278C154.217 18.6278 153.714 18.7898 153.305 19.1136C152.896 19.4375 152.587 19.8864 152.376 20.4602C152.166 21.0341 152.061 21.6989 152.061 22.4545C152.061 23.2159 152.166 23.8892 152.376 24.4744C152.592 25.054 152.902 25.5085 153.305 25.8381C153.714 26.1619 154.217 26.3239 154.814 26.3239Z" fill="white"/>
<defs>
<linearGradient id="paint0_linear_535_53" x1="3" y1="3" x2="29" y2="29" gradientUnits="userSpaceOnUse">
<stop stop-color="#2D00F7"/>
<stop offset="1" stop-color="#85209E"/>
</linearGradient>
</defs>
</svg>
